<svg width="53" height="28" viewBox="0 0 53 28" fill="none" xmlns="http://www.w3.org/2000/svg">
<path fill-rule="evenodd" clip-rule="evenodd" d="M7.07236 4.70454L7.07235 4.70455L2.79458 9.91228C1.58613 11.3834 0.981907 12.119 0.756275 12.94C0.565617 13.6338 0.565617 14.3662 0.756275 15.06C0.981907 15.881 1.58613 16.6166 2.79457 18.0877L7.07235 23.2954L7.07237 23.2955C8.50716 25.0422 9.22457 25.9155 10.1107 26.5399C10.8634 27.0701 11.7019 27.4665 12.5895 27.7115C13.6344 28 14.7646 28 17.0251 28H46.4968C48.7748 28 49.9137 28 50.7807 27.5497C51.5113 27.1702 52.107 26.5745 52.4865 25.8439C52.9368 24.9769 52.9368 23.838 52.9368 21.56V6.44C52.9368 4.16204 52.9368 3.02306 52.4865 2.1561C52.107 1.42553 51.5113 0.829848 50.7807 0.450346C49.9137 0 48.7748 0 46.4968 0H17.0251C14.7646 0 13.6344 0 12.5895 0.288454C11.7019 0.533467 10.8634 0.929852 10.1107 1.46015C9.22456 2.08447 8.50716 2.95783 7.07236 4.70454ZM11.4371 17C13.094 17 14.4371 15.6569 14.4371 14C14.4371 12.3431 13.094 11 11.4371 11C9.78028 11 8.43714 12.3431 8.43714 14C8.43714 15.6569 9.78028 17 11.4371 17Z" fill="#7B91F7"/>
</svg>
